<svg width="490" height="315" viewBox="0 0 490 315" fill="none" xmlns="http://www.w3.org/2000/svg"><path d="M398.023 102.262c.128-1.28.213-2.56.342-3.883a111.118 111.118 0 01-.342 3.883zm2.86-34.732c.086-1.067.171-2.133.214-3.2-.043 1.067-.128 2.09-.214 3.2zm-1.665 21.334c.086-1.28.214-2.517.299-3.755-.085 1.238-.213 2.475-.299 3.755zm-4.012 41.515c.213-1.749.384-3.541.597-5.376-.213 1.835-.384 3.627-.597 5.376zm5.336-57.856zm-.555 7.083c.085-1.195.17-2.39.299-3.584a84.625 84.625 0 00-.299 3.584zm23.435-13.91c.598-12.586-.683-21.376-.683-21.376h.043l-1.366-.597-1.75.384-11.867 2.645-3.8-5.546-1.622-.171 1.366.17c.171 6.614 3.757 46.593-3.329 97.622h22.966c-3.031-22.955-1.324-47.957-.641-66.816l.683-6.315zm-27.234 55.637c.128-1.237.256-2.474.384-3.754-.128 1.28-.256 2.517-.384 3.754zm.939-9.429c.17-1.92.384-3.84.555-5.76-.171 1.92-.385 3.84-.555 5.76zm-.555 5.717c.128-1.237.256-2.517.384-3.797-.128 1.237-.256 2.517-.384 3.797zm2.305-24.96c.128-1.28.213-2.56.341-3.797-.128 1.237-.213 2.517-.341 3.797zm-.512 5.761l.512-5.76c-.171 1.877-.341 3.797-.512 5.76z" fill="#fff"/><path d="M403.786 41.206l-1.366-.171c.043 2.432-.427 11.307-1.281 23.253a70.57 70.57 0 00-.213 3.2 1278.513 1278.513 0 00-.641 8.49c-.085 1.196-.17 2.348-.298 3.585-.128 1.792-.299 3.627-.427 5.504-.086 1.237-.214 2.475-.299 3.755-.085 1.28-.213 2.517-.341 3.797l-.513 5.76c-.128 1.28-.213 2.56-.341 3.883-.128 1.28-.256 2.56-.342 3.882-.17 1.92-.384 3.84-.555 5.76-.042.64-.128 1.28-.17 1.92-.128 1.28-.257 2.518-.385 3.798-.128 1.237-.256 2.517-.384 3.754-.128 1.238-.256 2.475-.384 3.67-.213 1.834-.384 3.626-.598 5.376-.341 2.944-.64 5.76-.981 8.448h6.232c7.043-51.03 3.458-91.051 3.287-97.664z" fill="#fff"/><path opacity=".15" d="M402.633 45.557l-.213-4.48c.043 2.432-.427 11.307-1.281 23.254a72.04 72.04 0 00-.213 3.2 1275.518 1275.518 0 00-.64 8.49 112.53 112.53 0 01-.299 3.584c-.128 1.792-.299 3.627-.427 5.504-.086 1.238-.214 2.475-.299 3.755-.085 1.28-.213 2.517-.341 3.797l-.513 5.76c-.128 1.28-.213 2.56-.341 3.883-.128 1.28-.256 2.56-.342 3.882-.17 1.92-.384 3.84-.555 5.76-.042.64-.128 1.28-.17 1.92-.128 1.28-.257 2.518-.385 3.798-.128 1.237-.256 2.517-.384 3.754-.128 1.238-.256 2.475-.384 3.67-.213 1.834-.384 3.626-.598 5.376-.341 2.944-.64 5.76-.981 8.448h6.232c7.043-51.072 2.305-86.784 2.134-93.355z" fill="#000"/><path d="M380.906 138.827l3.585 152.064h14.301l7.982-132.267a2.908 2.908 0 015.806.043l7.256 132.224h14.301l4.397-152.064h-57.628z" fill="#21252B"/><path opacity=".5" d="M380.906 138.827l-.47 4.522h57.927l.171-4.522h-57.628z" fill="#000"/><path opacity=".3" d="M384.875 138.827l-.683 15.53h9.392c2.476 0 4.695-1.706 5.122-4.138.64-3.84 1.195-7.638 1.75-11.35h-15.581v-.042z" fill="#000"/><path d="M385.985 299.851l-.384-12.459h12.123l-.555 12.843-11.184-.384z" fill="#FDD8BD"/><path opacity=".15" d="M397.596 290.891l-.384 9.344-2.903-.086.086-5.504c0-.896-.598-1.664-1.452-1.877l-7.256-1.877h11.909z" fill="#000"/><path d="M432.515 299.851l.384-12.459h-12.166l.555 12.843 11.227-.384zM402.377 24.608l.128 17.579c0 .426.128.853.384 1.194l.171.299c4.269 6.357 13.063 7.595 18.953 2.73.598-.511.897-1.28.769-2.047L419.58 23.2l-17.203 1.408z" fill="#FDD8BD"/><path d="M421.459 15.904s3.5 23.125-9.263 24.064c-12.465.938-12.849-22.443-12.849-22.443l-.342-6.698 16.051-2.816 4.055 2.09 2.348 5.803z" fill="#FDD8BD"/><path opacity=".15" d="M421.757 38.047l-.939-6.357c-1.152 4.096-3.543 7.51-7.726 8.192h.042l-.896.128c-3.33.256-6.104-1.28-8.196-4.565a.278.278 0 00-.47.299c2.22 3.498 5.166 5.12 8.709 4.864.768-.043 1.494-.214 2.177-.427 2.262.256 4.866-.299 7.299-2.133z" fill="#000"/><path d="M418.428 10.741s4.055-2.688 5.976 1.92c1.622 3.883-1.11 8.107-1.11 8.107l-2.348-.256c-.982-.043-1.665-.512-1.75-1.451l-.768-8.32z" fill="#21252B"/><path d="M421.33 7.926c.342 4.394-3.415 5.546-4.951 5.674l-12.593 1.067c-1.025.085-1.793.981-1.75 2.005l.213 4.011a1.034 1.034 0 01-.896 1.11l-.769.085-.853 1.066c-4.952-1.194-7.001-15.232 2.091-18.048.939-.298 1.836-1.024 2.263-1.92 1.323-2.73 6.744-3.456 9.476-.384.598.683 1.281.939 2.177.939 3.287-.085 5.422 1.963 5.592 4.395z" fill="#21252B"/><path d="M400.627 23.243c-.17-1.621-2.091-2.475-3.372-1.408l-.043.043c-2.177 1.877-.768 7.765 4.013 7.253l-.598-5.888zm23.777-3.115l-.043-.043c-1.408-.853-3.159.256-3.116 1.878l.256 5.632c4.824-.171 5.294-5.931 2.903-7.467z" fill="#FDD8BD"/><path d="M401.225 23.968c.042.299-.214.555-.513.598-.298.042-.597-.171-.64-.427l-.555-3.797 1.58.042.128 3.584zm21.002-1.536c.043.299-.213.555-.512.598-.299.042-.598-.171-.641-.427l-.554-3.797 1.579.042.128 3.584z" fill="#21252B"/><path d="M416.464 14.155c-.384.042-.597 0-.64 0-.128 0-.256-.128-.256-.299 0-.128.128-.256.299-.256.042 0 2.561.128 3.628-1.536a.278.278 0 01.47.299c-.94 1.408-2.604 1.75-3.501 1.792z" fill="#FDD8BD"/><path d="M406.987 26.529a1.108 1.108 0 100-2.22 1.11 1.11 0 100 2.22z" fill="#21252B"/><path d="M406.475 25.547a.257.257 0 00.257-.256.256.256 0 10-.257.256z" fill="#fff"/><path d="M415.525 25.888a1.108 1.108 0 100-2.218 1.108 1.108 0 100 2.218z" fill="#21252B"/><path d="M415.013 24.949a.256.256 0 100-.513.256.256 0 000 .513z" fill="#fff"/><path opacity=".3" d="M411.811 30.667l.897-.086c.17 0 .298-.17.298-.341 0-.17-.17-.299-.341-.299l-.897.086c-.384.042-.683-.256-.725-.64-.043-.384.256-.683.64-.726.171 0 .299-.17.299-.341 0-.17-.171-.299-.342-.299a1.272 1.272 0 00-1.195 1.408c0 .768.64 1.28 1.366 1.238z" fill="#000"/><path d="M418.598 21.835l-4.823.256-.641.043-4.226.256h-.042l-5.422.298c-.896.043-1.536.811-1.494 1.707l.086 1.237a4.341 4.341 0 004.567 4.096 4.34 4.34 0 004.098-4.565l-.085-1.237c0-.342-.171-.683-.384-.939l1.664-.085c-.17.298-.298.597-.256.981l.086 1.237a4.341 4.341 0 004.567 4.096 4.34 4.34 0 004.098-4.565l-.085-1.237c-.043-.982-.811-1.622-1.708-1.579zm-8.623 2.09l.086 1.238c.128 2.048-1.451 3.797-3.458 3.883-2.049.128-3.799-1.451-3.884-3.456l-.086-1.238c-.042-.512.384-.981.897-1.024l5.421-.298h.043a.896.896 0 01.981.896zm9.776.683c.128 2.048-1.451 3.798-3.458 3.883-2.049.128-3.799-1.45-3.884-3.456l-.086-1.237c-.042-.512.385-.982.897-1.024l.64-.043 4.824-.256c.512-.043.982.384 1.024.896l.043 1.237z" fill="#21252B"/><path d="M409.079 32.416l5.422-.384c.128 0 .256.128.213.256-.768 2.773-4.568 3.072-5.763.47v-.043c-.085-.128 0-.299.128-.299z" fill="#fff"/><path opacity=".3" d="M399.432 26.315c-.171 0-.299-.128-.342-.3l-.085-.682c-.085-.725-.299-1.237-.598-1.493-.256-.213-.512-.17-.512-.17-.171.042-.341-.086-.384-.257-.043-.17.085-.341.256-.384.043 0 .512-.085 1.025.256.469.342.768 1.024.853 1.92l.086.683c0 .213-.128.384-.299.427zm23.478-1.75c.171 0 .299-.17.299-.341v-.683c-.043-.725.085-1.237.384-1.536.214-.256.47-.256.513-.256.17 0 .298-.128.341-.298 0-.171-.128-.299-.299-.342-.042 0-.555 0-.939.427-.427.427-.598 1.11-.555 2.048v.683c-.085.17.043.298.256.298z" fill="#000"/><path d="M397.169 311.115v-10.88c0-3.286-2.689-5.974-5.976-5.974h-.256c-2.689 0-5.037 1.878-5.549 4.523a9.114 9.114 0 01-2.049 4.224l-1.708 2.005a9.464 9.464 0 00-2.262 6.102h17.8z" fill="#4D7EFC"/><path d="M386.882 300.064a.236.236 0 01-.214-.128c-.042-.128-.042-.256.086-.299 3.5-1.962 6.574 0 6.574 0 .085.086.128.214.042.299-.085.085-.213.128-.299.043-.042 0-2.86-1.835-6.104 0 0 .085-.043.085-.085.085zm-.726 1.536a.233.233 0 01-.213-.128c-.043-.128-.043-.256.085-.298 3.5-1.963 6.574 0 6.574 0 .085.085.128.213.042.298-.085.086-.213.128-.298.043-.043 0-2.86-1.835-6.105 0 0 .085-.042.085-.085.085zm-.768 1.621a.234.234 0 01-.214-.128c-.042-.128-.042-.256.086-.298 3.5-1.963 6.574 0 6.574 0 .085.085.128.213.042.298-.085.086-.213.128-.299.043-.042 0-2.86-1.835-6.104 0-.043.085-.085.085-.085.085z" fill="#fff"/><path d="M380.137 313.376h16.264a.764.764 0 00.768-.768v-1.451h-17.8v1.451c0 .427.341.768.768.768z" fill="#3F4249"/><path d="M384.193 290.891l-.129-4.95h15.368l-.299 4.95h-14.94z" fill="#4D61FC"/><path d="M399.432 285.941l-.299 4.95h-14.94l-.129-4.95h15.368z" fill="#30353E"/><path d="M453.517 64.245a14.744 14.744 0 00-8.495-10.325l-22.24-9.643h-.043s.043.214 0 .683c0 .17-.085.427-.128.683-.256 2.858-.811 9.898-1.238 19.413-.085 1.877-.17 3.883-.256 5.973-.64 17.92-.725 56.192 1.836 79.659.213 2.048 1.963 3.541 3.97 3.541h11.525l.683-32.298.683-32.768.555 2.005 18.014-4.224-4.866-22.699zM402.42 41.077l-14.685-1.664c-5.336-.598-10.757.384-15.495 2.858L352.39 52.47l13.105 13.91 12.081-2.646.683 5.29a362.162 362.162 0 012.774 64.171l-.939 21.205h9.392a5.21 5.21 0 005.122-4.138c8.153-38.486 7.983-102.614 7.812-109.184z" fill="#7FDEDB"/><path d="M462.183 103.712l-3.629-16.682-18.014 4.224 3.586 10.538-30.138 6.699-1.664.341c-.555.128-1.068.171-1.452-.213l-.64-.64c-.598-.469-1.281-.853-2.049-1.067-1.793-.512-3.287-1.749-4.183-3.328l-1.452-2.56c-.085-.128-.213-.17-.341-.085l-.256.085c-1.068.384-1.58 1.536-1.281 2.603l1.11 3.499a.748.748 0 01-.47.938l-7.086 2.902c-1.494.554-.982 2.602.384 2.261.726-.171.897-.213.897-.213l-1.409.725c-1.579.768-.854 2.901.512 2.603a142.91 142.91 0 003.159-.768l-1.75.682c-1.281.598-.768 2.816.982 2.39 1.024-.256 2.646-.768 2.646-.768l-1.067.512c-1.366.426-.896 2.56.384 2.304 1.11-.214 11.526-2.774 16.905-3.755l39.912-4.352c4.355-.384 7.343-4.565 6.404-8.875zM352.348 52.427L332.37 62.923c-6.659 3.498-4.183 13.568 3.372 13.568h38.12l7.385-7.766-16.307-2.304.94-.213" fill="#FDD8BD"/><path d="M374.46 71.072l4.994-2.56 11.782 1.664c.982.17 1.878.64 2.518 1.365l2.604 3.243c.641.725 1.11 1.578 1.281 2.56l1.238 5.162c.085.598 0 1.152-.555 1.28-.555.128-1.067-.128-1.281-.682l-1.878-5.291-3.33-3.67 3.031 4.822 1.708 6.699c.128.554-.171 1.152-.683 1.365a1.201 1.201 0 01-1.58-.725c-.555-1.75-1.451-4.736-1.451-4.736l-3.586-5.59 3.586 5.59 1.579 3.37a1.059 1.059 0 01-.469 1.408c-.512.299-1.195.128-1.494-.341-.811-1.237-2.519-3.499-2.519-3.499l-3.287-4.352 3.543 5.334a.847.847 0 01-.17 1.066.738.738 0 01-1.025-.085l-3.244-3.499a3.823 3.823 0 00-1.708-.981 13.354 13.354 0 01-6.189-3.243l-.256-.256h-3.8l.641-5.418z" fill="#FDD8BD"/><path d="M402.377 54.816l.086-16.256-3.116 2.176-6.318 15.787 9.348-1.707z" fill="#4DC4C0"/><path opacity=".15" d="M393.413 56.224l5.934-15.488-.555-.085-6.147 16.17 9.647.811.085-2.816-8.964 1.408z" fill="#7FDEDB"/><path d="M422.355 41.418l3.287 4.139 3.714 15.915-7.385-4.182.683-10.922.043-.214c.128-.597.17-1.194.128-1.792l-.47-2.944z" fill="#4DC4C0"/><path opacity=".2" d="M426.283 45.813l-.683-.256 3.585 15.659-7.257-3.968-.256 3.242 8.196 1.536-3.585-16.213z" fill="#7FDEDB"/><path opacity=".15" d="M455.78 112.757l-39.913 4.352c-5.379.982-15.795 3.542-16.905 3.755-.725.128-1.195-.469-1.238-1.109 0 0 .299.512 1.11.256.427-.128 6.83-2.475 10.886-4.011a36.512 36.512 0 016.744-1.792c8.709-1.451 31.376-5.291 37.48-6.656 1.793-.384 2.903-2.176 2.476-3.925l-3.501-15.19 5.678-1.322 3.628 16.682c.897 4.224-2.091 8.406-6.445 8.96z" fill="#000"/><path d="M452.834 88.394l5.677-1.322-5.677 1.322z" fill="#4D61FC"/><path opacity=".15" d="M361.227 61.514l4.653 4.736 11.696-2.56-.854-4.864c-.213-1.237-1.494-2.005-2.689-1.578l-12.806 4.266zm4.653 4.736l-4.653-4.735-7.983 2.645-8.495-1.237c-.128-.043-.256.085-.299.213 0 .128.086.256.214.299l14.514 2.09 5.762.94.94-.214zm23.179 18.22a.737.737 0 001.024.084c.342-.256.427-.725.171-1.066l-3.287-4.907c-.384.213-.555.768-.896.939-.512.256-1.11.128-1.452.256-.341.128-.555.213-.555.213a3.17 3.17 0 011.708.981l3.287 3.5zm7.513 1.237l-1.708-6.7-3.031-4.82 3.33 3.669 1.921 5.29c.214.555.726.854 1.281.683.512-.128.64-.682.555-1.28l-1.238-5.163c-.171-.938-.641-1.834-1.281-2.56l-2.604-3.242c-.213-.256-.469-.427-.726-.64 0 .768.086 1.322-.17 1.877-.214.512-.641.896-1.11 1.365-.427.427-.342 1.28-.726 1.707-.213.256-1.067.47-1.323.683-.555.427-.683 1.11-1.11 1.408-.427.341-1.067.299-1.58.597l2.989 3.925s1.664 2.262 2.518 3.5a1.1 1.1 0 001.494.34c.086-.042.171-.127.256-.213 0 .043.043.128.043.17.214.64.939.982 1.58.726.512-.213.768-.768.64-1.322z" fill="#000"/><path opacity=".15" d="M394.267 86.39c-.043 0-.128 0-.171-.043-.086-.085-.128-.256-.043-.341.299-.342.128-.939.128-.939l-1.878-3.925-2.732-4.182c-.085-.128-.043-.256.085-.34.128-.086.257-.044.342.084l2.775 4.182 1.878 4.01c.043.086.299.896-.214 1.451 0 0-.085.043-.17.043z" fill="#000"/><path opacity=".4" d="M409.677 155.894a2.901 2.901 0 00-2.903 2.73l-7.684 127.317h-4.567l1.836-121.599c.085-4.694 3.884-8.448 8.58-8.448h4.738z" fill="#000"/><path d="M399.133 290.891l.299-4.95h-4.909l-.085 4.95h4.695z" fill="#21252B"/><path opacity=".15" d="M432.771 290.891l-.256 8.96-5.08.17.085-6.058c0-.555-.341-1.11-.896-1.28l-5.72-1.835h11.867v.043z" fill="#000"/><path opacity=".4" d="M438.107 154.357l-3.97 136.533h-1.366l.128-3.498h-5.293l1.878-133.035h8.623z" fill="#000"/><path d="M421.288 311.115v-10.88c0-3.286 2.689-5.974 5.976-5.974h.256c2.69 0 5.038 1.878 5.55 4.523a9.105 9.105 0 002.049 4.224l1.707 2.005a9.46 9.46 0 012.263 6.102h-17.801z" fill="#4D7EFC"/><path d="M431.618 300.064c-.042 0-.085 0-.128-.042-3.287-1.835-6.104-.043-6.104 0-.085.085-.256.042-.299-.043-.085-.085-.043-.256.043-.299.042 0 3.073-2.005 6.574 0 .128.043.128.214.085.299a.321.321 0 01-.171.085zm.683 1.536c-.042 0-.085 0-.128-.042-3.287-1.835-6.104-.043-6.104 0-.085.085-.256.042-.299-.043-.085-.085-.042-.256.043-.299.043 0 3.073-2.005 6.574 0 .128.043.128.214.085.299 0 .043-.085.085-.171.085zm.811 1.622c-.043 0-.085 0-.128-.043-3.287-1.835-6.104-.043-6.104 0-.086.085-.256.043-.299-.043-.085-.085-.043-.256.043-.298.042 0 3.073-2.006 6.573 0 .129.042.129.213.086.298-.043.043-.085.086-.171.086z" fill="#fff"/><path d="M438.32 313.376h-16.264a.765.765 0 01-.768-.768v-1.451h17.843v1.451c0 .427-.384.768-.811.768z" fill="#3F4249"/><path d="M419.196 285.941l.299 4.95h14.941l.085-4.95h-15.325z" fill="#30353E"/><path d="M427.606 285.941v4.95h6.83l.085-4.95h-6.915z" fill="#21252B"/><path d="M413.946 108.576l1.579 8.533 2.69-.298-1.58-8.832-2.689.597z" fill="#001B34"/><path d="M416.208 115.701a2.688 2.688 0 10.001-5.377 2.688 2.688 0 00-.001 5.377z" fill="#4D61FC"/><path d="M416.208 115.275a2.262 2.262 0 10.002-4.524 2.262 2.262 0 00-.002 4.524z" fill="#fff"/><path d="M417.702 113.227l-1.537-.086-1.11-.81c-.042-.043-.085-.128-.042-.171.042-.043.128-.085.171-.043l1.024.768 1.451.086c.086 0 .128.042.128.128.043.042 0 .128-.085.128z" fill="#001B34"/><path d="M358.537 313.589H337.62a4.571 4.571 0 01-4.567-4.565V80.416a4.571 4.571 0 014.567-4.565h20.917c6.873 0 12.465 5.589 12.465 12.458v212.864c0 6.827-5.592 12.416-12.465 12.416z" fill="#21252B"/><path d="M348.335 313.589h-99.931c-7.385 0-13.404-6.015-13.404-13.397V89.205c0-7.38 6.019-13.397 13.404-13.397h99.931c7.385 0 13.404 6.016 13.404 13.397V300.15c0 7.424-5.976 13.44-13.404 13.44z" fill="#61656D"/><path d="M348.164 81.27h-25.868c-1.75 0-3.287 1.237-3.586 2.986-.342 1.75-1.836 2.987-3.586 2.987H281.7c-1.75 0-3.287-1.237-3.586-2.987-.341-1.75-1.835-2.987-3.586-2.987H248.66c-4.568 0-8.282 3.712-8.282 8.278v210.219c0 4.565 3.714 8.277 8.282 8.277h99.59c4.567 0 8.281-3.712 8.281-8.277V89.589c-.043-4.608-3.756-8.32-8.367-8.32z" fill="#4D61FC"/><path opacity=".5" d="M348.164 81.27h-25.868c-1.75 0-3.287 1.237-3.586 2.986-.342 1.75-1.836 2.987-3.586 2.987H281.7c-1.75 0-3.287-1.237-3.586-2.987-.341-1.75-1.835-2.987-3.586-2.987H248.66c-4.568 0-8.282 3.712-8.282 8.278v210.219c0 4.565 3.714 8.277 8.282 8.277h99.59c4.567 0 8.281-3.712 8.281-8.277V89.589c-.043-4.608-3.756-8.32-8.367-8.32z" fill="url(#paint0_linear)"/><path opacity=".5" d="M311.709 83.19h-26.68a.947.947 0 01-.939-.939c0-.512.427-.939.939-.939h26.68c.512 0 .939.427.939.94a.92.92 0 01-.939.938z" fill="#000"/><path d="M224.456 124.406l-4.61-2.432-.214.384c-14.172-4.693-30.095 1.408-37.266 15.061-7.172 13.654-3.244 30.208 8.666 39.254l-.214.384 4.61 2.432c15.197 8.021 34.065 2.176 42.048-13.056 8.068-15.232 2.219-34.048-13.02-42.027z" fill="#4D61FC"/><path d="M224.456 124.406l-4.61-2.432-.214.384c-14.172-4.693-30.095 1.408-37.266 15.061-7.172 13.654-3.244 30.208 8.666 39.254l-.214.384 4.61 2.432c15.197 8.021 34.065 2.176 42.048-13.056 8.068-15.232 2.219-34.048-13.02-42.027z" fill="#C09E49"/><path d="M206.911 181.408c17.187 0 31.119-13.926 31.119-31.104 0-17.179-13.932-31.104-31.119-31.104-17.187 0-31.119 13.925-31.119 31.104 0 17.178 13.932 31.104 31.119 31.104z" fill="#F0C65B"/><path opacity=".2" d="M186.763 139.723c6.36-12.075 21.045-16.981 33.296-11.349-.384-.256-.811-.47-1.238-.683-12.507-6.571-28.003-1.792-34.577 10.709-6.574 12.502-1.793 27.99 10.715 34.56l1.28.64c-11.568-6.954-15.837-21.802-9.476-33.877z" fill="#000"/><path d="M338.346 116.811H254.38a.84.84 0 01-.811-.811v-5.205a.84.84 0 01.811-.811h83.966a.84.84 0 01.811.811V116a.81.81 0 01-.811.811zM328.4 131.36h-64.074a.84.84 0 01-.811-.811v-5.205a.84.84 0 01.811-.811H328.4a.84.84 0 01.811.811v5.205a.81.81 0 01-.811.811z" fill="#fff"/><path d="M318.07 271.904h-43.413a2.478 2.478 0 01-2.476-2.475v-7.083a2.477 2.477 0 012.476-2.474h43.413a2.477 2.477 0 012.476 2.474v7.083c.042 1.365-1.11 2.475-2.476 2.475z" fill="#F3F6FB"/><path d="M302.062 161.354h-3.928v.854c-3.201 1.493-5.421 4.736-5.421 8.491v65.407c0 3.755 2.22 6.998 5.421 8.491v.854h3.928a9.344 9.344 0 009.348-9.345v-65.407a9.344 9.344 0 00-9.348-9.345z" fill="#4D61FC"/><path opacity=".3" d="M302.062 161.354h-3.928v.854c-3.201 1.493-5.421 4.736-5.421 8.491v65.407c0 3.755 2.22 6.998 5.421 8.491v.854h3.928a9.344 9.344 0 009.348-9.345v-65.407a9.344 9.344 0 00-9.348-9.345z" fill="url(#paint1_linear)"/><path d="M298.092 245.451a9.344 9.344 0 01-9.349-9.345v-65.407a9.344 9.344 0 019.349-9.345 9.344 9.344 0 019.348 9.345v65.407a9.344 9.344 0 01-9.348 9.345z" fill="#fff"/><path d="M298.092 240.843a5.064 5.064 0 01-5.08-5.078v-64.682a5.064 5.064 0 015.08-5.078 5.064 5.064 0 015.08 5.078v64.682c.042 2.774-2.263 5.078-5.08 5.078z" fill="#3F4249"/><path d="M303.214 172.32c-2.561-.64-5.25-1.024-8.025-1.024h-5.336v.427c-15.197 2.56-26.765 15.744-26.765 31.659 0 15.914 11.568 29.098 26.765 31.658v.427h5.336c2.775 0 5.464-.341 8.025-1.024V172.32z" fill="#4D61FC"/><path opacity=".3" d="M303.214 172.32c-2.561-.64-5.25-1.024-8.025-1.024h-5.336v.427c-15.197 2.56-26.765 15.744-26.765 31.659 0 15.914 11.568 29.098 26.765 31.658v.427h5.336c2.775 0 5.464-.341 8.025-1.024V172.32z" fill="#000"/><path d="M303.214 173.472a31.738 31.738 0 00-11.611-2.176c-17.758 0-32.144 14.379-32.144 32.128 0 17.75 14.386 32.128 32.144 32.128 4.098 0 7.983-.768 11.611-2.176v-59.904z" fill="#F0C65B"/><path d="M303.214 179.702a26.386 26.386 0 00-11.611-2.688c-14.599 0-26.423 11.819-26.423 26.411s11.824 26.41 26.423 26.41c4.141 0 8.111-.981 11.611-2.688v-47.445z" fill="#F0C65B"/><path opacity=".2" d="M268.125 203.381c0-14.08 11.056-25.6 24.93-26.368-.47-.042-.982-.042-1.452-.042-14.599 0-26.423 11.818-26.423 26.41s11.824 26.411 26.423 26.411c.47 0 .982 0 1.452-.043-13.917-.768-24.93-12.245-24.93-26.368z" fill="#000"/><path opacity=".3" d="M303.214 170.443h-4.183v65.877h4.183v-65.877z" fill="#263238"/><path d="M175.45 313.589h-17.245c-2.049 0-3.757-1.493-4.056-3.541l-4.738-33.749h25.527l4.568 32.597c.384 2.475-1.537 4.693-4.056 4.693zm-106.078 0h17.246c2.049 0 3.756-1.493 4.055-3.541l4.739-33.749H69.883l-4.567 32.597c-.342 2.475 1.58 4.693 4.055 4.693z" fill="#3F4249"/><path d="M69.372 313.589h17.246c2.049 0 3.756-1.493 4.055-3.541l4.739-33.749H69.883l-4.567 32.597c-.342 2.475 1.58 4.693 4.055 4.693z" fill="#8F5FB4"/><path d="M75.604 310.048l4.739-33.749H69.884l-4.567 32.597a4.088 4.088 0 004.055 4.651h2.177a4.025 4.025 0 004.055-3.499z" fill="#B377E1"/><path d="M175.45 313.589h-17.245c-2.049 0-3.757-1.493-4.056-3.541l-4.738-33.749h25.527l4.568 32.597c.384 2.475-1.537 4.693-4.056 4.693z" fill="#8F5FB4"/><path d="M166.358 308.896l-4.567-32.597h-12.38l4.738 33.749c.299 2.005 2.007 3.541 4.056 3.541h4.098c2.476 0 4.397-2.218 4.055-4.693z" fill="#B377E1"/><path d="M35.393 313.589h17.246c2.049 0 3.756-1.493 4.055-3.541l4.738-33.749H35.905l-4.568 32.597c-.341 2.475 1.58 4.693 4.056 4.693zm106.078 0h-17.246c-2.049 0-3.756-1.493-4.055-3.541l-4.738-33.749h25.527l4.568 32.597c.384 2.475-1.537 4.693-4.056 4.693z" fill="#3F4249"/><path d="M141.471 313.589h-17.246c-2.049 0-3.756-1.493-4.055-3.541l-4.738-33.749h25.527l4.568 32.597c.384 2.475-1.537 4.693-4.056 4.693zm-106.078 0h17.246c2.049 0 3.756-1.493 4.055-3.541l4.738-33.749H35.905l-4.568 32.597c-.341 2.475 1.58 4.693 4.056 4.693z" fill="#B377E1"/><path d="M50.248 212.086c5.894 0 10.672-7.851 10.672-17.536 0-9.685-4.778-17.536-10.672-17.536-5.894 0-10.672 7.851-10.672 17.536 0 9.685 4.778 17.536 10.672 17.536z" fill="#3F4249"/><path d="M50.248 212.086c5.894 0 10.672-7.851 10.672-17.536 0-9.685-4.778-17.536-10.672-17.536-5.894 0-10.672 7.851-10.672 17.536 0 9.685 4.778 17.536 10.672 17.536z" fill="#AF6BE3"/><path d="M202.514 252.918a28.74 28.74 0 01-1.878-.086 2.221 2.221 0 01-2.049-2.432c.086-1.237 1.195-2.133 2.433-2.048 2.476.214 4.824-.128 6.702-.896-2.518-1.92-4.354-4.48-5.037-7.21-1.366-5.291 1.238-9.046 4.525-9.984 3.202-.896 7.428.682 9.221 6.4 1.067 3.413.853 6.698-.598 9.429 2.305.341 4.909.128 7.641-.683 1.195-.341 2.433.342 2.817 1.536.342 1.195-.341 2.432-1.536 2.816-5.166 1.536-9.264 1.152-12.252.214-2.604 1.877-6.104 2.944-9.989 2.944zm6.404-18.39c-.171 0-.299.043-.47.043-1.153.341-2.092 1.877-1.409 4.523.427 1.621 1.793 3.882 4.44 5.461 1.195-1.792 1.408-4.011.64-6.571-.768-2.432-2.134-3.456-3.201-3.456z" fill="#3F4249"/><path opacity=".5" d="M202.514 252.918a28.74 28.74 0 01-1.878-.086 2.221 2.221 0 01-2.049-2.432c.086-1.237 1.195-2.133 2.433-2.048 2.476.214 4.824-.128 6.702-.896-2.518-1.92-4.354-4.48-5.037-7.21-1.366-5.291 1.238-9.046 4.525-9.984 3.202-.896 7.428.682 9.221 6.4 1.067 3.413.853 6.698-.598 9.429 2.305.341 4.909.128 7.641-.683 1.195-.341 2.433.342 2.817 1.536.342 1.195-.341 2.432-1.536 2.816-5.166 1.536-9.264 1.152-12.252.214-2.604 1.877-6.104 2.944-9.989 2.944zm6.404-18.39c-.171 0-.299.043-.47.043-1.153.341-2.092 1.877-1.409 4.523.427 1.621 1.793 3.882 4.44 5.461 1.195-1.792 1.408-4.011.64-6.571-.768-2.432-2.134-3.456-3.201-3.456z" fill="#B377E1"/><path d="M145.612 299.04H70.738c-30.948 0-56.048-25.088-56.048-56.022 0-30.933 25.1-56.021 56.048-56.021h74.874c30.948 0 56.049 25.088 56.049 56.021 0 30.934-25.101 56.022-56.049 56.022z" fill="#B377E1"/><path opacity=".2" d="M175.152 195.403a56.952 56.952 0 0110.501 33.024c0 31.573-25.613 57.173-57.201 57.173H52.041a57.51 57.51 0 01-22.539-4.608c10.245 11.094 24.887 18.048 41.193 18.048h74.874c30.949 0 56.049-25.088 56.049-56.021.043-20.096-10.544-37.717-26.466-47.616z" fill="#000"/><path d="M20.836 225.483h-5.634v1.835c-5.166 3.541-8.794 11.818-8.794 21.418s3.628 17.878 8.794 21.419v1.835h5.634c7.983 0 14.429-10.411 14.429-23.254 0-12.842-6.446-23.253-14.429-23.253z" fill="#3F4249"/><path d="M20.836 225.483h-5.634v1.835c-5.166 3.541-8.794 11.818-8.794 21.418s3.628 17.878 8.794 21.419v1.835h5.634c7.983 0 14.429-10.411 14.429-23.254 0-12.842-6.446-23.253-14.429-23.253z" fill="#8F5FB4"/><path d="M15.202 272.032c7.968 0 14.428-10.411 14.428-23.253 0-12.843-6.46-23.254-14.428-23.254-7.969 0-14.429 10.411-14.429 23.254 0 12.842 6.46 23.253 14.429 23.253z" fill="#B377E1"/><path opacity=".3" d="M8.457 255.222c1.132 0 2.049-2.98 2.049-6.656 0-3.676-.917-6.656-2.049-6.656s-2.049 2.98-2.049 6.656c0 3.676.917 6.656 2.049 6.656zm8.793 0c1.132 0 2.05-2.98 2.05-6.656 0-3.676-.918-6.656-2.05-6.656-1.131 0-2.048 2.98-2.048 6.656 0 3.676.917 6.656 2.049 6.656zm32.998-34.006c1.815 0 3.287-2.847 3.287-6.358 0-3.511-1.472-6.357-3.287-6.357s-3.287 2.846-3.287 6.357 1.472 6.358 3.287 6.358zm-21.045 0c1.815 0 3.287-2.847 3.287-6.358 0-3.511-1.472-6.357-3.287-6.357s-3.287 2.846-3.287 6.357 1.472 6.358 3.287 6.358z" fill="#000"/><path d="M87.344 202.102a28.087 28.087 0 001.024-7.552c0-9.686-4.78-17.536-10.672-17.536-5.89 0-10.672 7.85-10.672 17.536 0 1.322.086 2.602.257 3.797l20.063 3.755z" fill="#B377E1"/><path opacity=".3" d="M78.635 194.934c.47.085.94-.256.94-.768.042-1.963-.043-5.419-.043-6.187 0-3.328-1.836-6.016-4.056-6.016-2.22 0-4.055 2.688-4.055 6.016 0 .384-.043 3.499-.043 4.907 0 .384.257.682.64.768l6.617 1.28z" fill="#000"/><path opacity=".2" d="M67.238 195.275a.337.337 0 01-.342-.341c.128-4.31.854-7.979.854-8.022a.356.356 0 01.427-.256c.17.043.299.214.256.427 0 .043-.726 3.627-.811 7.893a.374.374 0 01-.384.299z" fill="#000"/><path opacity=".3" d="M92.38 198.73h.854c-.555-4.778-2.689-8.917-5.165-11.733h-.768c.683 2.304 1.024 4.864 1.024 7.552v.043c0 2.261 1.793 4.138 4.056 4.138z" fill="#000"/><path d="M157.223 208.8H91.228a2.723 2.723 0 01-2.732-2.731 2.723 2.723 0 012.732-2.731h65.995a2.723 2.723 0 012.732 2.731c.043 1.493-1.195 2.731-2.732 2.731z" fill="#3F4249"/><path opacity=".5" d="M157.223 208.8H91.228a2.723 2.723 0 01-2.732-2.731 2.723 2.723 0 012.732-2.731h65.995a2.723 2.723 0 012.732 2.731c.043 1.493-1.195 2.731-2.732 2.731z" fill="#000"/><path d="M97.845 208.8h56.39a31.016 31.016 0 002.604-17.792c-2.561-16.981-18.399-28.715-35.388-26.197l-5.123.768.086.426c-14.215 4.608-23.393 18.944-21.13 34.176.426 3.072 1.323 5.931 2.56 8.619z" fill="#4D61FC"/><path d="M97.845 208.8h56.39a31.016 31.016 0 002.604-17.792c-2.561-16.981-18.399-28.715-35.388-26.197l-5.123.768.086.426c-14.215 4.608-23.393 18.944-21.13 34.176.426 3.072 1.323 5.931 2.56 8.619z" fill="#C09E49"/><path d="M94.174 208.8h56.859c2.348-5.248 3.287-11.178 2.348-17.28-2.561-16.981-18.398-28.714-35.388-26.197-16.989 2.56-28.728 18.389-26.21 35.371a34.219 34.219 0 002.39 8.106z" fill="#F0C65B"/><path d="M131.952 190.752a.497.497 0 00-.427-.086l-2.945.427c-.342-.939-.811-1.707-1.452-2.304l4.013-.597c.171-.043.299-.086.384-.214a.495.495 0 00.086-.426l-.257-1.75c-.042-.17-.085-.298-.213-.384a.497.497 0 00-.427-.085l-14.257 2.133c-.171.043-.299.086-.385.214a.495.495 0 00-.085.426l.341 2.262c.043.128.086.256.214.341.128.085.256.128.427.085l2.476-.383c2.433-.342 4.055.042 4.866 1.237l-7.086 1.066c-.171.043-.299.086-.384.214-.086.128-.128.256-.086.426l.256 1.75c.043.171.086.299.214.384a.497.497 0 00.427.085l7.342-1.109c-.128.981-.598 1.792-1.451 2.389-.854.64-2.007 1.067-3.543 1.28l-1.921.299c-.128.043-.256.085-.342.213a.497.497 0 00-.085.427l.341 2.176c.043.128.086.256.214.341 2.561 2.006 4.354 3.456 8.452 7.126.213 0 3.799-.342 3.799-.342.256-.042.384-.17.47-.384.085-.213.042-.426-.171-.554-3.97-3.584-5.507-4.864-7.684-6.614 1.921-.512 3.372-1.365 4.44-2.602 1.067-1.195 1.579-2.646 1.622-4.352l2.86-.427c.171-.043.299-.086.384-.213a.498.498 0 00.085-.427l-.256-1.749a1.845 1.845 0 00-.256-.299z" fill="#4D61FC"/><path d="M100.363 208.8h44.438c2.775-4.821 3.97-10.538 3.116-16.469-2.092-13.995-15.111-23.595-29.113-21.504-14.001 2.091-23.606 15.104-21.514 29.099a25.22 25.22 0 003.073 8.874z" fill="#F0C65B"/><path opacity=".2" d="M100.363 208.8h3.031c-1.665-2.773-2.817-5.931-3.33-9.344-2.006-13.525 6.916-26.112 20.149-28.843-.47.043-.939.086-1.409.171-14.001 2.091-23.606 15.104-21.514 29.099a25.15 25.15 0 003.073 8.917z" fill="#000"/><path opacity=".5" d="M159.998 206.112H88.496c.043 1.493 1.238 2.688 2.732 2.688h65.995a2.78 2.78 0 002.775-2.688z" fill="#000"/><path d="M489.417 314.059H1.499a.383.383 0 01-.384-.384c0-.214.17-.384.384-.384h487.918c.213 0 .384.17.384.384a.383.383 0 01-.384.384z" fill="#B2B6BB"/><path d="M216.473 207.392a2.04 2.04 0 01-1.622-2.389c.043-.256-.128-.555-.384-.598-.256-.042-.555.128-.598.384a2.04 2.04 0 01-2.39 1.622c-.256-.043-.555.128-.598.384-.043.256.128.555.384.597a2.04 2.04 0 011.622 2.39c-.042.256.128.554.385.597.256.043.554-.128.597-.384a2.04 2.04 0 012.391-1.621c.256.042.555-.128.597-.384.043-.256-.128-.512-.384-.598z" fill="#4D61FC"/><path opacity=".5" d="M216.473 207.392a2.04 2.04 0 01-1.622-2.389c.043-.256-.128-.555-.384-.598-.256-.042-.555.128-.598.384a2.04 2.04 0 01-2.39 1.622c-.256-.043-.555.128-.598.384-.043.256.128.555.384.597a2.04 2.04 0 011.622 2.39c-.042.256.128.554.385.597.256.043.554-.128.597-.384a2.04 2.04 0 012.391-1.621c.256.042.555-.128.597-.384.043-.256-.128-.512-.384-.598z" fill="#fff"/><path d="M181.256 121.334a2.04 2.04 0 01-1.622-2.39c.043-.256-.128-.554-.384-.597-.256-.043-.555.128-.598.384a2.039 2.039 0 01-2.39 1.621c-.256-.042-.555.128-.598.384-.043.256.128.555.384.598a2.038 2.038 0 011.622 2.389c-.042.256.128.555.385.597.256.043.554-.128.597-.384a2.041 2.041 0 012.391-1.621c.256.043.555-.128.597-.384.086-.299-.085-.555-.384-.597z" fill="#4D61FC"/><path opacity=".5" d="M181.256 121.334a2.04 2.04 0 01-1.622-2.39c.043-.256-.128-.554-.384-.597-.256-.043-.555.128-.598.384a2.039 2.039 0 01-2.39 1.621c-.256-.042-.555.128-.598.384-.043.256.128.555.384.598a2.038 2.038 0 011.622 2.389c-.042.256.128.555.385.597.256.043.554-.128.597-.384a2.041 2.041 0 012.391-1.621c.256.043.555-.128.597-.384.086-.299-.085-.555-.384-.597z" fill="#fff"/><path d="M281.7 155.894a2.04 2.04 0 01-1.622-2.39c.042-.256-.128-.554-.384-.597-.257-.043-.555.128-.598.384a2.04 2.04 0 01-2.391 1.621c-.256-.042-.554.128-.597.384-.043.256.128.555.384.598a2.038 2.038 0 011.622 2.389c-.043.256.128.555.384.597.256.043.555-.128.598-.384a2.04 2.04 0 012.39-1.621c.257.043.555-.128.598-.384.043-.256-.085-.555-.384-.597z" fill="#4D61FC"/><path d="M129.434 152.864a2.04 2.04 0 01-1.623-2.389c.043-.256-.128-.555-.384-.597-.256-.043-.555.128-.597.384a2.041 2.041 0 01-2.391 1.621c-.256-.043-.555.128-.598.384-.042.256.129.555.385.597a2.04 2.04 0 011.622 2.39c-.043.256.128.554.384.597.256.043.555-.128.598-.384a2.039 2.039 0 012.39-1.621c.256.042.555-.128.598-.384a.467.467 0 00-.384-.598zm42.046 21.845a1.153 1.153 0 10.001-2.305 1.153 1.153 0 00-.001 2.305z" fill="#4D7EFC"/><path d="M254.721 191.989a1.153 1.153 0 10.001-2.305 1.153 1.153 0 00-.001 2.305z" fill="#4D61FC"/><defs><linearGradient id="paint0_linear" x1="303.994" y1="-39.532" x2="262.167" y2="303.62" gradientUnits="userSpaceOnUse"><stop offset=".402" stop-color="#7FDEDB"/><stop offset="1" stop-color="#825BF2"/></linearGradient><linearGradient id="paint1_linear" x1="302.953" y1="116.557" x2="269.339" y2="236.262" gradientUnits="userSpaceOnUse"><stop offset=".402" stop-color="#7FDEDB"/><stop offset="1" stop-color="#5B6CF2"/></linearGradient></defs></svg>