<svg width="156" height="83" viewBox="0 0 156 83" fill="none" xmlns="http://www.w3.org/2000/svg"><mask id="mask0" maskUnits="userSpaceOnUse" x="0" y="0" width="156" height="83"><path fill="#C4C4C4" d="M0 0h156v83H0z"/></mask><g mask="url(#mask0)"><path d="M4.035 82.5c-2.223 0-4.028-1.813-3.904-4.032.88-15.679 6.048-31.44 14.61-44.533C23.322 20.815 33.316 11.48 46.99 4.66c1.935-.965 4.26-.112 5.203 1.834L86.22 76.757c1.286 2.656-.65 5.743-3.6 5.743H4.034z" fill="#4D7EFC"/><path d="M151.351 83c2.267 0 4.088-1.882 3.9-4.14-.845-10.14-3.43-20.665-7.575-29.764a86.628 86.628 0 00-19.697-27.402 86.119 86.119 0 00-28.63-17.74C90.264.558 70.678-.12 58.135.016c-2.757.03-4.58 2.816-3.571 5.381l10.4 26.464a4.048 4.048 0 003.87 2.552c6.128-.14 12.972.074 18.46 2.126a51.565 51.565 0 0117.143 10.622 51.864 51.864 0 0111.794 16.407 50.506 50.506 0 014.296 15.586c.233 2.14 1.983 3.846 4.135 3.846h26.689z" fill="url(#paint0_linear)"/></g><defs><linearGradient id="paint0_linear" x1="144.658" y1="70.003" x2="52.199" y2="11.452" gradientUnits="userSpaceOnUse"><stop stop-color="#7FDEDB"/><stop offset="1" stop-color="#7FDEDB" stop-opacity="0"/></linearGradient></defs></svg>