<svg width="164" height="164" viewBox="0 0 164 164" fill="none" xmlns="http://www.w3.org/2000/svg"><mask id="mask0" maskUnits="userSpaceOnUse" x="0" y="0" width="164" height="164"><path fill="#C4C4C4" d="M0 0h164v164H0z"/></mask><g mask="url(#mask0)"><path d="M82.007 78.014c0 2.21-1.792 4.01-3.999 3.902A82.007 82.007 0 01.099 4.006C-.01 1.798 1.79.005 4 .005h74.007a4 4 0 014 4v74.008z" fill="#313059"/><path d="M160.014 164.021c2.209 0 4.01-1.792 3.902-3.998a82.01 82.01 0 00-50.526-71.766 82.013 82.013 0 00-27.385-6.145c-2.206-.108-3.998 1.693-3.998 3.902v74.007a4 4 0 004 4h74.007z" fill="#4D7EFC"/><circle cx="40.383" cy="122.69" r="40.019" fill="#7FDEDB"/><circle cx="124.019" cy="40.019" r="40.019" fill="#7977E1"/></g></svg>