<svg width="165" height="250" viewBox="0 0 165 250" fill="none" xmlns="http://www.w3.org/2000/svg"><path d="M82.93 163.986c0 2.209-1.793 4.01-4 3.902a82.001 82.001 0 01-77.91-77.91c-.107-2.207 1.694-4 3.903-4H78.93a4 4 0 014 4v74.008z" fill="#313059"/><mask id="mask0" maskUnits="userSpaceOnUse" x="1" y="0" width="164" height="250"><path fill="#C4C4C4" d="M1 0h164v250H1z"/></mask><g mask="url(#mask0)"><path d="M160.936 249.993c2.209 0 4.01-1.792 3.903-3.998a82.022 82.022 0 00-23.922-53.99 82.015 82.015 0 00-53.99-23.921c-2.206-.108-3.998 1.693-3.998 3.902v74.007a4 4 0 004 4h74.007z" fill="#4D7EFC"/><circle cx="41.305" cy="208.661" r="40.019" fill="#7FDEDB"/><circle cx="41.305" cy="40.278" r="40.019" fill="#7977E1"/></g></svg>