<svg width="170" height="259" viewBox="0 0 170 259" fill="none" xmlns="http://www.w3.org/2000/svg"><path d="M84.934 88.868c0-2.209 1.792-4.01 3.999-3.906a84.93 84.93 0 0174.471 52.338 84.96 84.96 0 016.371 28.504c.104 2.207-1.697 3.999-3.906 3.999H88.934a4 4 0 01-4-4V88.868z" fill="#4D7EFC"/><mask id="mask0" maskUnits="userSpaceOnUse" x="0" y="0" width="170" height="259"><path fill="#C4C4C4" d="M0 0h170v259H0z"/></mask><g mask="url(#mask0)"><path d="M4-.066C1.79-.066-.01 1.726.094 3.933a84.934 84.934 0 0080.842 80.842c2.206.104 3.998-1.697 3.998-3.906V3.934a4 4 0 00-4-4H4z" fill="#7FDEDB"/><circle cx="128.045" cy="42.74" r="41.448" transform="rotate(-180 128.045 42.74)" fill="#313059"/><circle cx="128.045" cy="217.134" r="41.448" transform="rotate(-180 128.045 217.134)" fill="#7977E1"/></g></svg>