<svg width="362" height="567" viewBox="0 0 362 567" fill="none" xmlns="http://www.w3.org/2000/svg"><path d="M252.5 0L144 112.479h69.045V391h78.91V112.479H361L252.5 0z" fill="#CDD8F8"/><path d="M114.5 242L32 328.877h52.5V544h60V328.877H197L114.5 242z" fill="#768FEB" fill-opacity=".32"/><path d="M107.084 479.187H43.537L.756 437.216h63.546l42.782 41.971zm63.534-24.639h-63.534l-42.781-41.957h63.533l42.782 41.957zm63.546-24.638h-63.547l-42.781-41.958h63.547l42.781 41.958zm63.547-24.639h-63.547l-42.781-41.958h63.533l42.795 41.958zm63.533-24.626h-63.533l-42.795-41.971h63.547l42.781 41.971z" fill="#FFDFB0"/><path d="M64.303 437.216v-24.625l42.781 41.957v24.639l-42.781-41.971zm63.533-24.625v-24.639l42.781 41.958v24.638l-42.781-41.957zm63.547-24.639v-24.639l42.781 41.958v24.639l-42.781-41.958zm63.533-24.639v-24.639l42.795 41.971v24.626l-42.795-41.958zM43.537 479.187v87.521L.756 524.751v-87.535l42.781 41.971z" fill="#D38E2A"/><path d="M107.084 479.188H43.537v87.521h63.547v-87.521zm63.547-24.64h-63.547v112.16h63.547v-112.16z" fill="#FEBE58"/><path d="M234.164 429.909h-63.547v136.799h63.547V429.909zm63.547-24.638h-63.547v161.437h63.547V405.271z" fill="#FEBE58"/><path d="M361.258 380.645h-63.547v186.063h63.547V380.645z" fill="url(#paint0_linear)"/><path d="M31.258 437.216l42.782 41.971h33.044l-42.781-41.971H31.258zm63.452-24.625l42.796 41.957h33.031l-42.782-41.957H94.711zm63.628-24.639l42.782 41.958h33.044l-42.781-41.958h-33.045zm63.547-24.639l42.781 41.958h33.045l-42.795-41.958h-33.031z" fill="#FFCF8F"/><path opacity=".3" d="M292.224 238.706c-2.798.901-5.38 1.049-8.298.78-2.919-.269-5.891-1.87-6.994-4.588-.847-2.086-.498-4.428-.619-6.675-.107-1.951-.591-3.862-.887-5.786-.296-1.924.699-5.477 1.345-7.321 0 0 .739 13.376 2.837 19.001.283.767.646 1.534 1.278 2.045.74.593 1.762.646 2.717.754 2.649.283 9.024-.188 9.024-.188" fill="#000"/><path d="M175.796 269.484l2.376-4.501s1.11-3.656 0-6.117c-1.109-2.461-2.569-7.734-.941-13.163 1.629-5.442 5.44-7.818 10.023-8.494 4.583-.676 10.662 1.363 12.266 4.331 1.604 2.968 1.773 6.817 1.146 9.496-.519 2.22 1.157 5.743 1.676 6.756.507 1.014-1.616 1.87-1.616 1.87s.241 6.974-3.715 7.167c-3.956.193-4.957-.615-6.103.616-1.145 1.23-4.776 9.133-4.776 9.133l-10.336-7.094z" fill="#FDD8BD"/><path d="M198.241 266.491c-1.821.941-7.164-2.57-7.466-.639-.241 1.496-3.316 7.927-4.667 10.714l.024.024s3.63-7.903 4.776-9.133c1.146-1.231 2.159-.423 6.103-.616a2.827 2.827 0 001.833-.76 4.407 4.407 0 01-.603.41z" fill="#F2C4A3"/><path d="M176.845 402.697l-3.159 6.72 7.911 3.414 3.631-7.058-8.383-3.076z" fill="#FDD8BD"/><path d="M170.61 417.416l3.184-8.301 8.201 2.751s4.776 6.057 7.357 6.962c2.581.905 3.691 5.972.76 6.202-2.918.217-19.502-7.614-19.502-7.614z" fill="#2B2D31"/><path d="M136.297 418.828l-3.486 6.551 7.731 3.813 3.98-6.877-8.225-3.487z" fill="#FDD8BD"/><path d="M129 432.558l4.173-7.855 7.803 3.729s4.005 6.599 6.465 7.806c2.448 1.206 2.931 6.37 0 6.238-2.943-.133-18.441-9.918-18.441-9.918z" fill="#2B2D31"/><path d="M189.533 270.871l-.603 21.295-13.242-28.522.325-2.643 13.52 9.87z" fill="#ECECEC"/><path d="M180.753 334.528c.482.156 28.066 28.051 27.438 33.071-.615 5.007-20.25 42.12-20.25 42.12l-14.002-6.914 13.134-32.54-.169-2.015-16.053-13.163.856-21.163 9.046.604z" fill="#4D61FC"/><path d="M174.807 340.017c-.326.483-5.102 44.316-6.38 46.584-1.279 2.269-20.455 39.683-20.455 39.683l-14.244-5.743 17.379-41.119-1.978-38.922 1.074-10.992 21.504 4.416 3.1 6.093z" fill="#4D61FC"/><path d="M187.604 300.322l-3.522 17.495-2.871 24.408s-11.831-1.653-16.873-3.245c-5.849-1.846-18.573-3.427-18.573-3.427l2.146 2.124c-4.547-1.279-7.453-5.623-7.453-5.623 7.839-7.275 14.533-22.248 14.533-22.248l5.97-29.633s.905-4.174 1.447-6.032c.543-1.858 9.601-7.855 10.855-8.615l.784-.374.253-2.377.929-.555 9.806 8.904a10.649 10.649 0 013.413 6.66 77.41 77.41 0 01.422 11.149c-.097 3.463-1.266 11.389-1.266 11.389z" fill="#3E4478"/><path d="M180.874 270.015s5.174 2.775 6.078 5.139c.893 2.353-1.773 28.197-1.773 28.197l18.598.35.061 11.088s-29.537 2.341-30.695.736c-1.556-2.16-3.365-22.357-3.365-22.357l-.676-14.527c.012-.012 1.725-11.088 11.772-8.626z" fill="#343A6B"/><path opacity=".3" d="M184.07 317.817c-2.509.808-4.825.941-7.442.7-2.617-.242-5.283-1.677-6.272-4.115-.759-1.87-.446-3.969-.554-5.984-.097-1.749-.531-3.463-.796-5.188-.266-1.725.627-4.911 1.206-6.563 0 0 .663 11.992 2.545 17.036.253.687.578 1.375 1.145 1.834.664.53 1.58.579 2.437.675 2.376.254 8.092-.169 8.092-.169" fill="#000"/><path d="M160.889 282.707s-9.673 12.657-10.855 16.107c-1.182 3.451-.265 8.398 1.701 10.775 1.966 2.365 3.558 1.399 3.558 1.399l5.596-28.281z" fill="#343A6B"/><path opacity=".3" d="M153.122 320.809c-1.532 2.739-3.112 5.526-5.452 7.614-.82.736-1.749 1.387-2.376 2.304-.627.905-.905 2.184-.301 3.113.205.326.578.615.964.519.266-.061.459-.29.628-.507a38.028 38.028 0 006.428-12.62m1.387-10.292c-1.327-.954-1.785-2.763-1.592-4.38.193-1.617.941-3.113 1.604-4.597 2.075-4.609 3.486-8.783 4.716-13.827l.941-3.511-4.788 25.048-.881 1.267z" fill="#000"/><path d="M203.536 304.992s4.016-3.041 4.993-3.222c.748-.145 5.222-.06 7.285-.024.796.012 1.483.639 1.471 1.436 0 .048 0 .096-.012.145-.157.832-.977 1.013-.977 1.013s1.061.302 1.086 1.472c.012 1.158-1.387 1.412-1.387 1.412s.084.06.205.181c.772.772.374 2.087-.676 2.328l-.639.145s.856.362.844 1.158c-.024 1.533-3.461 1.822-3.461 1.822s-8.503 1.351-8.684 1.291c-.193-.084-.048-9.157-.048-9.157z" fill="#FDD8BD"/><path d="M215.018 299.936c-.036.507-.157 1.581-1.013 2.063l-4.74-.181s3.534-1.218 4.028-1.821c.181-.206.422-.471.676-.664.458-.338 1.097.048 1.049.603z" fill="#FDD8BD"/><path d="M149.528 337.93c-1.677-.145-3.257-1.146-4.113-2.594-.097-.169-.181-.386-.048-.531.084-.096.229-.109.361-.109a11.266 11.266 0 013.896.664c.145.048.302.121.35.266.036.096.012.217-.012.325-.169.64-.338 1.279-.495 1.931" fill="#4F7FFF"/><path opacity=".4" d="M149.528 337.93c-1.677-.145-3.257-1.146-4.113-2.594-.097-.169-.181-.386-.048-.531.084-.096.229-.109.361-.109a11.266 11.266 0 013.896.664c.145.048.302.121.35.266.036.096.012.217-.012.325-.169.64-.338 1.279-.495 1.931" fill="#000"/><path d="M189.533 270.871s1.954 6.551 1.411 6.177c-.543-.374-1.7-1.411-1.7-1.411l.289-4.766z" fill="#ECECEC"/><path d="M189.425 273.887l1.061 2.546c.109.265.169.543.205.82.085.712.193 2.027-.229 2.112-.591.12-1.146-.471-1.146-.471l.109-5.007z" fill="#1E0F00"/><path d="M156.342 274.285s10.432-4.078 16.209-.47c5.778 3.595 6.827 9.338 10.276 9.338 6.706 0 6.501-4.741 6.501-4.741l1.423.434c.024.965 1.556 7.927-5.512 8.796-7.067.868-10.046-8.784-16.402-8.796-6.356-.012-11.193 3.439-11.193 3.439l-4.571-2.896 3.269-5.104z" fill="#1E0F00"/><path d="M183.117 287.521s-2.605-1.339-4.028-4.621c-1.616-3.74-5.102-8.011-8.009-9.085-2.906-1.074-9.624-1.822-14.268 1.206l-2.979 4.018 3.86 2.51s3.051-1.677 6.802-2.727c4.8-1.339 7.719.169 10.505 2.811.169.169.338.326.47.483.7.796 2.654 2.654 4.415 3.909 1.375.977 2.605 1.508 3.232 1.496z" fill="#343A6B"/><path d="M178.618 262.546s3.715.893 4.499.893c.784 0 2.291-5.611 2.291-5.611s-2.159-.784-2.798-3.378c-.639-2.594 1.17-3.197 2.075-2.775.904.422 1.507 1.689 1.507 1.689s4.231 5.868 4.955-2.216c.724-8.084 6.622-5.249 8.672-4.766 2.05.483 2.836-1.729 2.354-3.756-1.086-4.524-3.98-7.722-14.775-6.274-10.794 1.448-9.286 6.093-9.286 6.093s-3.402 4.223-2.425 9.23c.977 5.007 3.498 9.121 2.931 10.871z" fill="#1E0F00"/><ellipse rx=".752" ry="1.128" transform="matrix(-1 0 0 1 197.917 253.029)" fill="#000"/><circle r=".376" transform="matrix(-1 0 0 1 198.294 253.029)" fill="#C4C4C4"/><path d="M196.5 260.927l3.674 1.881c.251-.125.677-.677.377-1.881-1.494.225-2.395.192-4.051 0z" fill="#F4F4F4"/><defs><linearGradient id="paint0_linear" x1="298" y1="401" x2="419" y2="402.5" gradientUnits="userSpaceOnUse"><stop stop-color="#FEBE58"/><stop offset="1" stop-color="#FEBE58" stop-opacity="0"/></linearGradient></defs></svg>