<svg width="164" height="164" viewBox="0 0 164 164" fill="none" xmlns="http://www.w3.org/2000/svg"><mask id="mask0" maskUnits="userSpaceOnUse" x="0" y="0" width="164" height="164"><path fill="#C4C4C4" d="M0 0h164v164H0z"/></mask><g mask="url(#mask0)"><path d="M82.007 78.014c0 2.21-1.792 4.01-3.998 3.902A82.008 82.008 0 01.098 4.006C-.01 1.798 1.79.005 4 .005h74.007a4 4 0 014 4v74.008z" fill="#313059"/><path d="M82.007 86.014c0-2.209 1.792-4.01 3.999-3.902a82.008 82.008 0 0177.911 77.911c.107 2.206-1.694 3.998-3.903 3.998H86.007a4 4 0 01-4-4V86.014z" fill="#4D7EFC"/><circle cx="40.383" cy="121.69" r="40.019" fill="#7FDEDB"/></g></svg>