<svg width="109" height="110" viewBox="0 0 109 110" fill="none" xmlns="http://www.w3.org/2000/svg"><mask id="mask0" maskUnits="userSpaceOnUse" x="0" y="0" width="109" height="110"><path fill="#C4C4C4" d="M0 0h109v110H0z"/></mask><g mask="url(#mask0)"><path d="M4.13 52.975c-2.209 0-4.015-1.793-3.849-3.996A53.006 53.006 0 0149.141.12c2.203-.166 3.997 1.64 3.997 3.85v45.006a4 4 0 01-4 4H4.13z" fill="#7977E1"/><mask id="mask1" maskUnits="userSpaceOnUse" x="55" y="56" width="54" height="54"><path fill="#C4C4C4" d="M55 56h54v54H55z"/></mask><g mask="url(#mask1)"><path d="M55.982 60.355c0-2.21 1.792-4.017 3.995-3.851a53.005 53.005 0 0148.881 48.838c.168 2.203-1.638 3.997-3.847 3.998l-45.007.02a4 4 0 01-4.002-3.998l-.02-45.007z" fill="#7FDEDB"/></g><path d="M4.299 55.993c-2.21 0-4.016 1.793-3.85 3.996a53.008 53.008 0 0048.86 48.86c2.203.167 3.997-1.64 3.997-3.849V59.993a4 4 0 00-4-4H4.299z" fill="#4D61FC"/></g><path d="M29.703 65.19c-3.51 0-7.935 2.58-7.86 9.24l-5.58 7.23c-.165.21.03.48.33.48l3.72 1.846c.195 1.38.915 5.4 1.305 7.41.135.63 6.285.15 6.285.15l1.8 3.645" stroke="#F3F6FB" stroke-width="2"/><path d="M29.703 65.19c-3.51 0-7.935 2.58-7.86 9.24l-5.58 7.23c-.165.21.03.48.33.48l3.72 1.846c.195 1.38.915 5.4 1.305 7.41.135.63 6.285.15 6.285.15l1.8 3.645m6.42-30.001l-1.53 4.276m11.145-.166l-5.13 3.84m5.595 7.216l-4.905-.36" stroke="#F3F6FB" stroke-width="2" stroke-miterlimit="10" stroke-linecap="round" stroke-linejoin="round"/><path d="M33.438 85.02c1.77-.9 6.18-5.46 3.525-8.954-2.16-2.835-6.255-2.835-8.415 0-2.655 3.495 1.77 8.04 3.525 8.955.435.21.93.21 1.365 0zm-.675-5.16v5.326m-1.98 3.87h3.945m-3.945-3.87h3.945" stroke="#F3F6FB" stroke-width="2" stroke-miterlimit="10" stroke-linecap="round" stroke-linejoin="round"/><path d="M32.703 79.86a.75.75 0 100-1.5.75.75 0 000 1.5z" stroke="#F3F6FB" stroke-width="2" stroke-miterlimit="10" stroke-linecap="round" stroke-linejoin="round"/></svg>