<svg width="110" height="109" viewBox="0 0 110 109" fill="none" xmlns="http://www.w3.org/2000/svg"><mask id="mask0" maskUnits="userSpaceOnUse" x="0" y="0" width="110" height="109"><path fill="#C4C4C4" d="M0 0h110v109H0z"/></mask><g mask="url(#mask0)"><path d="M4.144 52.964c-2.209 0-4.015-1.794-3.849-3.996A53.008 53.008 0 0149.155.108c2.203-.167 3.996 1.64 3.996 3.849v45.007a4 4 0 01-4 4H4.144z" fill="#7FDEDB"/><path d="M4.287 55.982c-2.209 0-4.016 1.793-3.849 3.996a53.008 53.008 0 0048.86 48.86c2.203.167 3.996-1.64 3.996-3.849V59.982a4 4 0 00-4-4H4.287z" fill="#4D61FC"/><circle cx="82.495" cy="82.501" r="26.5" fill="#4D7EFC"/><path d="M70.495 69.5v25h25" stroke="#F3F6FB" stroke-width="2" stroke-miterlimit="10" stroke-linecap="round" stroke-linejoin="round"/><path d="M77.995 77h-2.5v12.5h2.5V77zm7.5-7.5h-2.5v20h2.5v-20zm7.5 12.5h-2.5v7.5h2.5V82z" stroke="#F3F6FB" stroke-width="2" stroke-miterlimit="10" stroke-linecap="round" stroke-linejoin="round"/></g></svg>