<svg width="51" height="43" viewBox="0 0 51 43" fill="none" xmlns="http://www.w3.org/2000/svg"><path d="M42.33 19.507a13.514 13.514 0 00-3.735-.545 11.72 11.72 0 00-4.682.96c1.177-4.31 4.005-11.744 9.637-12.58a1.338 1.338 0 001.09-.963l1.232-4.403A1.337 1.337 0 0044.766.29a9.35 9.35 0 00-1.26-.086c-6.76 0-13.455 7.056-16.28 17.16-1.659 5.927-2.145 14.839 1.94 20.448 2.286 3.139 5.62 4.815 9.912 4.982l.053.001c5.295 0 9.99-3.566 11.419-8.671a11.786 11.786 0 00-1.087-9.015c-1.538-2.73-4.072-4.721-7.134-5.603zM23.456 25.11c-1.538-2.73-4.072-4.721-7.134-5.603a13.514 13.514 0 00-3.733-.545c-1.887 0-3.462.431-4.683.96 1.177-4.31 4.005-11.744 9.637-12.58a1.339 1.339 0 001.091-.963l1.232-4.403A1.337 1.337 0 0018.759.29 9.339 9.339 0 0017.5.205c-6.76 0-13.455 7.056-16.28 17.16-1.66 5.927-2.145 14.839 1.94 20.45 2.285 3.137 5.621 4.814 9.912 4.98l.053.002c5.294 0 9.99-3.566 11.419-8.671a11.794 11.794 0 00-1.088-9.015z" fill="#F3F6FB"/></svg>