<?xml version="1.0" encoding="utf-8"?><svg xmlns="http://www.w3.org/2000/svg" xmlns:xlink="http://www.w3.org/1999/xlink"><symbol fill="none" viewBox="0 0 9 16" id="arrow-left" xmlns="http://www.w3.org/2000/svg"><path d="M8 1L1.037 7.963 8 14.926" stroke="currentColor" stroke-width="2" stroke-linecap="round" stroke-linejoin="round"/></symbol><symbol fill="none" viewBox="0 0 9 16" id="arrow-right" xmlns="http://www.w3.org/2000/svg"><path d="M1 1l6.963 6.963L1 14.926" stroke="currentColor" stroke-width="2" stroke-linecap="round" stroke-linejoin="round"/></symbol><symbol fill="none" viewBox="0 0 18 18" id="instagram" xmlns="http://www.w3.org/2000/svg"><path fill-rule="evenodd" clip-rule="evenodd" d="M9 .467c-2.317 0-2.608.01-3.518.051-.908.042-1.528.186-2.071.397a4.179 4.179 0 00-1.512.984A4.19 4.19 0 00.914 3.41C.703 3.953.56 4.573.518 5.481c-.04.91-.051 1.202-.051 3.52 0 2.317.01 2.607.051 3.517.042.908.186 1.528.397 2.071.218.561.51 1.037.984 1.512.474.474.95.767 1.51.985.544.21 1.164.355 2.072.396.91.041 1.201.052 3.519.052 2.317 0 2.607-.01 3.518-.052.908-.041 1.529-.185 2.072-.396a4.173 4.173 0 001.51-.985 4.19 4.19 0 00.985-1.512c.21-.543.354-1.163.397-2.07.04-.911.051-1.201.051-3.519 0-2.317-.01-2.608-.051-3.518-.043-.909-.187-1.529-.397-2.072A4.188 4.188 0 0016.1 1.9a4.17 4.17 0 00-1.51-.984C14.044.704 13.424.56 12.515.518c-.91-.041-1.2-.051-3.518-.051h.003zm-.765 1.538h.766c2.278 0 2.548.008 3.448.049.832.038 1.283.177 1.584.294.399.154.682.34.98.638.3.298.484.583.64.981.116.3.255.752.293 1.584.041.9.05 1.17.05 3.447 0 2.278-.009 2.548-.05 3.447-.038.832-.177 1.284-.293 1.584a2.64 2.64 0 01-.64.98 2.64 2.64 0 01-.98.639c-.3.117-.752.256-1.584.294-.9.04-1.17.05-3.448.05-2.279 0-2.549-.01-3.449-.05-.832-.038-1.283-.178-1.584-.294a2.642 2.642 0 01-.981-.639 2.645 2.645 0 01-.639-.98c-.117-.3-.256-.752-.294-1.584-.04-.9-.049-1.17-.049-3.449s.008-2.547.05-3.447c.037-.832.176-1.284.293-1.584.155-.399.34-.683.639-.982.298-.298.583-.483.98-.638.302-.118.753-.256 1.585-.295.788-.035 1.093-.046 2.683-.048v.003zm5.32 1.416a1.024 1.024 0 100 2.048 1.024 1.024 0 000-2.048zM9.002 4.618a4.382 4.382 0 100 8.765 4.382 4.382 0 000-8.765zm0 1.538a2.844 2.844 0 110 5.689 2.844 2.844 0 010-5.69z" fill="currentColor"/></symbol><symbol viewBox="0 0 120 120" id="ring"><circle class="result__meter" cx="60" cy="60" r="54"/><circle class="result__value" cx="60" cy="60" r="54"/></symbol><symbol fill="none" viewBox="0 0 16 14" id="twitter" xmlns="http://www.w3.org/2000/svg"><path fill-rule="evenodd" clip-rule="evenodd" d="M7.52 4.005l.034.554-.56-.068C4.959 4.23 3.179 3.35 1.669 1.87l-.74-.735-.19.543c-.402 1.209-.145 2.485.695 3.344.447.475.346.542-.426.26-.268-.09-.503-.158-.526-.124-.078.079.19 1.107.403 1.514.291.565.884 1.118 1.533 1.446l.549.26-.65.011c-.626 0-.648.011-.581.249.224.734 1.108 1.514 2.093 1.853l.693.237-.604.361a6.302 6.302 0 01-3 .836c-.503.012-.917.057-.917.09 0 .114 1.365.747 2.16.995 2.384.735 5.215.418 7.342-.836 1.51-.893 3.021-2.666 3.727-4.384.38-.915.76-2.587.76-3.39 0-.52.034-.587.66-1.208.37-.362.717-.757.784-.87.112-.215.101-.215-.47-.023-.951.339-1.085.294-.615-.215.347-.361.76-1.017.76-1.209 0-.034-.167.023-.357.125-.202.113-.65.282-.985.384l-.605.192-.548-.373c-.302-.203-.727-.43-.951-.497C11.09.548 10.218.57 9.703.75c-1.399.509-2.283 1.82-2.182 3.254z" fill="currentColor"/></symbol><symbol viewBox="0 0 28.7 27.9" id="web2ru" xmlns="http://www.w3.org/2000/svg"><path fill="currentColor" d="M5.5 25.1c1.5 0 2.6-1.2 2.6-2.6 0-.7-.2-1.3-.7-1.8l2.1-4c.2.1.5.1.7.1.6 0 1.2-.2 1.7-.6l2.9 2.4c-.1.3-.2.7-.2 1 0 1.5 1.2 2.6 2.6 2.6 1.5 0 2.6-1.2 2.6-2.6 0-.7-.3-1.4-.9-2l3.3-11.4c1.5 0 2.6-1.2 2.6-2.6 0-1.5-1.2-2.6-2.6-2.6-1.4 0-2.6 1-2.6 2.5 0 .9.5 1.7 1.2 2.2l-3.2 11.2h-.4c-.5 0-1 .2-1.5.5l-3-2.5c.1-.3.1-.5.1-.8 0-1.5-1.2-2.6-2.6-2.6-1.4 0-2.6 1.1-2.6 2.5 0 .6.2 1.3.7 1.7l-2.1 4.1c-.2-.1-.4-.1-.7-.1-1.5 0-2.6 1.2-2.6 2.6 0 1.4 1.1 2.8 2.6 2.8zm-1.2-2.7c0-.6.5-1.1 1.1-1.1.6 0 1.1.5 1.1 1.1 0 .6-.5 1.1-1.1 1.1-.6.1-1.1-.5-1.1-1.1zM9.1 14c0-.6.5-1.1 1.1-1.1.6 0 1.1.5 1.1 1.1 0 .6-.5 1.1-1.1 1.1-.6 0-1.1-.4-1.1-1.1zm7 5.5c0-.6.5-1.1 1.1-1.1.6 0 1.1.5 1.1 1.1 0 .6-.5 1.1-1.1 1.1-.6.1-1.1-.4-1.1-1.1zm5-16c0-.6.5-1.1 1.1-1.1.6 0 1.1.5 1.1 1.1 0 .6-.5 1.1-1.1 1.1-.6 0-1.1-.5-1.1-1.1zm7.4 22.9h-.2l-4.5-1.8-.4-.2v2H1.5V5.3h2.1l-.2-.4L1.5.2V0H0v27.9h28.7v-1.5h-.2z"/></symbol><symbol fill="none" viewBox="0 0 18 13" id="youtube" xmlns="http://www.w3.org/2000/svg"><path fill-rule="evenodd" clip-rule="evenodd" d="M15.668.5a2.167 2.167 0 011.509 1.549c.357 1.366.357 4.218.357 4.218s0 2.85-.357 4.218a2.167 2.167 0 01-1.51 1.549C14.338 12.4 9 12.4 9 12.4s-5.337 0-6.668-.366a2.167 2.167 0 01-1.509-1.55C.467 9.119.467 6.268.467 6.268s0-2.852.356-4.218a2.167 2.167 0 011.51-1.55C3.662.134 9 .134 9 .134s5.337 0 6.668.367zM7.4 3.867V9.2l4.267-2.667L7.4 3.867z" fill="currentColor"/></symbol></svg>