<svg width="371" height="393" viewBox="0 0 371 393" fill="none" xmlns="http://www.w3.org/2000/svg"><mask id="mask0" maskUnits="userSpaceOnUse" x="0" y="0" width="371" height="393"><path fill="#C4C4C4" d="M0 0h371v393H0z"/></mask><g mask="url(#mask0)"><path d="M85 3.658A3.658 3.658 0 0188.656 0C240.172 0 363 122.827 363 274.342V389a4 4 0 01-4 4H89a4 4 0 01-4-4V3.658z" fill="url(#paint0_linear)"/><g clip-path="url(#clip0)"><path d="M316.548 210.149H135.539a3.325 3.325 0 00-3.324 3.326v122.851a3.324 3.324 0 003.324 3.326h181.009a3.324 3.324 0 003.325-3.326V213.475a3.325 3.325 0 00-3.325-3.326z" fill="#2B2D31"/><path d="M124.629 330.074h203.313v7.268a4.067 4.067 0 01-4.062 4.064H128.691a4.066 4.066 0 01-4.062-4.064v-7.268z" fill="#2B2D31"/><path d="M314.572 215.293h-177.06v109.365h177.06V215.293z" fill="#F3F6FB"/><path d="M319.873 330.54c0 .062-42.013.114-93.825.114-51.811 0-93.833-.052-93.833-.114 0-.062 42.001-.114 93.833-.114s93.825.041 93.825.114z" fill="#3F4249"/><path d="M206.162 330.074h40.245l-2.133 3.671h-35.889l-2.223-3.671z" fill="#3F4249"/><path d="M196.776 279.362c-1.571 1.556-3.543 2.334-5.915 2.334-2.371 0-4.343-.778-5.914-2.334-1.557-1.557-2.335-3.462-2.335-5.715 0-2.238.786-4.136 2.357-5.692 1.586-1.572 3.565-2.357 5.937-2.357 2.372 0 4.336.778 5.892 2.334 1.572 1.557 2.357 3.462 2.357 5.715 0 2.238-.793 4.143-2.379 5.715zm-9.25-2.246c.89.948 2.016 1.423 3.38 1.423 1.364 0 2.483-.467 3.358-1.401.874-.949 1.311-2.112 1.311-3.491 0-1.364-.444-2.52-1.334-3.469-.889-.948-2.016-1.423-3.38-1.423-1.363 0-2.482.475-3.357 1.423-.875.934-1.312 2.09-1.312 3.469 0 1.364.445 2.52 1.334 3.469zm14.667 4.313v-15.564h3.157l7.294 9.583v-9.583h3.38v15.564h-2.913l-7.538-9.894v9.894h-3.38zm17.567 0v-15.564h3.424v12.451h7.76v3.113H219.76zm13.923 0v-15.564h3.424v15.564h-3.424zm7.314 0v-15.564h3.157l7.293 9.583v-9.583h3.38v15.564h-2.913l-7.538-9.894v9.894h-3.379zm17.567 0v-15.564h11.74v3.046h-8.338v3.157h7.337v3.047h-7.337v3.268h8.449v3.046h-11.851z" fill="#4D7EFC"/><path d="M354.117 296.731l6.757 11.108a6.145 6.145 0 01-1.714 8.399l-25.775 15.888-4.52-5.826 16.945-16.523-3.428-5.098 11.735-7.948zm-82.898 0l-6.752 11.108a6.14 6.14 0 001.714 8.399l26.503 15.888 4.52-5.826-17.673-16.523 3.449-5.098-11.761-7.948z" fill="#FDD8BD"/><path d="M322.045 270.883l-18.397-.639-16.024 3.216a9.325 9.325 0 00-6.273 4.218l-10.972 19.486 12.395 8.364 5.998-8.742v36.896h47.986v-36.896l5.402 8.318 12.648-7.949-10.711-19.558a9.314 9.314 0 00-6.56-4.365l-15.522-2.349" fill="#2E3568"/><path d="M303.012 252.431l-.175 17.891c-.003.4.121.79.355 1.114l.163.279c4.246 6.585 14.627 4.476 17.973 1.08a2.064 2.064 0 00.716-1.912l-2.999-19.764-16.033 1.312z" fill="#FDD8BD"/><path d="M320.811 244.302s3.264 21.599-8.642 22.474c-11.628.878-11.997-20.961-11.997-20.961l-.321-6.255 14.974-2.628 3.783 1.951 2.203 5.419z" fill="#FDD8BD"/><path opacity=".15" d="M321.089 264.984l-.857-5.938c-1.076 3.824-3.308 7.014-7.211 7.652h.043l-.836.121c-3.106.235-5.698-1.197-7.647-4.288a.269.269 0 00-.36-.081.26.26 0 00-.115.164.257.257 0 00.038.196c2.069 3.267 4.815 4.78 8.14 4.544a8.636 8.636 0 002.031-.398 9.467 9.467 0 006.774-1.972z" fill="#000"/><path d="M317.983 239.483s3.784-2.512 5.57 1.792c1.517 3.627-1.032 7.572-1.032 7.572l-2.19-.241c-.917-.038-1.555-.475-1.632-1.354l-.716-7.769z" fill="#21252B"/><path d="M320.691 236.86c.321 4.107-3.184 5.183-4.619 5.299l-11.748.998a1.802 1.802 0 00-1.632 1.874l.201 3.743a.974.974 0 01-.857 1.037l-.715.077-.797.999c-4.619-1.114-6.529-14.225 1.954-16.857a3.625 3.625 0 002.108-1.792c1.234-2.572 6.293-3.228 8.843-.36a2.471 2.471 0 002.03.857c3.081-.068 5.073 1.844 5.232 4.125z" fill="#21252B"/><path d="M301.376 251.157a1.947 1.947 0 00-.37-.962 1.94 1.94 0 00-2.775-.354l-.039.038c-2.031 1.754-.715 7.254 3.745 6.779l-.561-5.501zm22.182-2.911l-.039-.039a1.927 1.927 0 00-1.973.015 1.928 1.928 0 00-.932 1.739l.236 5.26c4.503-.158 4.94-5.539 2.708-6.975z" fill="#FDD8BD"/><path d="M301.937 251.835a.527.527 0 01-.48.557.537.537 0 01-.595-.399l-.519-3.558 1.474.039.12 3.361zm19.588-1.437a.52.52 0 01-.475.557.543.543 0 01-.6-.398l-.514-3.546 1.474.043.115 3.344zm-14.215 4.896a1.039 1.039 0 00.961-.637 1.032 1.032 0 00-.222-1.132 1.034 1.034 0 00-1.771.732 1.04 1.04 0 001.032 1.037z" fill="#21252B"/><path d="M307.361 254.891a.238.238 0 00.17-.067.24.24 0 000-.338.24.24 0 00-.17-.071.24.24 0 00-.169.071.24.24 0 00-.071.169.24.24 0 00.149.22c.029.011.06.017.091.016z" fill="#fff"/><path d="M315.275 254.685a1.038 1.038 0 10.01-2.076 1.038 1.038 0 00-.01 2.076z" fill="#21252B"/><path d="M315.326 254.334a.243.243 0 00.235-.289.249.249 0 00-.067-.123.243.243 0 00-.263-.049.234.234 0 00-.106.091.234.234 0 00-.039.134.24.24 0 00.24.236z" fill="#fff"/><path opacity=".3" d="M311.813 258.09l.857-.078a.295.295 0 00.264-.205.294.294 0 00-.017-.229.295.295 0 00-.29-.166l-.835.082a.646.646 0 01-.681-.605.645.645 0 01.604-.682.287.287 0 00.224-.093.294.294 0 00.082-.228.294.294 0 00-.114-.214.296.296 0 00-.235-.06 1.183 1.183 0 00-1.114 1.316 1.155 1.155 0 00.373.857 1.16 1.16 0 00.882.305z" fill="#000"/><path d="M341.525 357.807l-9.426-1.715-1.251 9.003 9.242 1.003 1.435-8.291z" fill="#FDD8BD"/><path opacity=".15" d="M332.262 365.163l3.265-8.69-.128 4.493a.974.974 0 00.298.536c.154.146.35.232.559.257l4.485.562-.651 3.739-7.819-.901-.009.004z" fill="#FDD8BD"/><path d="M347.729 372.083a7.087 7.087 0 01-4.285-2.303l-1.285-1.47a6.773 6.773 0 00-2.909-1.947 4.198 4.198 0 01-2.768-4.57l.026-.188a4.47 4.47 0 015.025-3.799l8.042 1.119-1.846 13.158z" fill="#2B2D31"/><path d="M340.241 365.54c-.069 0-.193 0-.214-.094a4.902 4.902 0 01.677-4.858c.014-.017.032-.025.052-.034a.159.159 0 01.061-.013c.021 0 .042.005.062.013.019.009.037.017.052.034.015.013.028.03.037.052a.181.181 0 01.012.064.177.177 0 01-.012.06.136.136 0 01-.037.052 4.482 4.482 0 00-.608 4.557.098.098 0 01-.001.051.248.248 0 01-.081.116z" fill="#fff"/><path d="M341.315 366.2c-.064.026-.193 0-.21-.094a4.902 4.902 0 01.677-4.857.159.159 0 01.112-.048c.02 0 .041.005.06.013a.23.23 0 01.051.035.163.163 0 01.048.115.159.159 0 01-.013.06.154.154 0 01-.035.052 4.485 4.485 0 00-.63 4.51c.007.017.01.034.01.052 0 .012-.003.03-.01.047.013.064-.026.12-.06.115zm1.12.769c-.069 0-.197 0-.214-.095a4.891 4.891 0 01.677-4.857.153.153 0 01.111-.047c.021 0 .042.004.061.012.02.005.037.018.052.031a.222.222 0 01.035.051.183.183 0 01.013.064.177.177 0 01-.012.06.215.215 0 01-.033.052 4.476 4.476 0 00-.63 4.514c.007.017.01.03.01.047a.137.137 0 01-.01.052.174.174 0 01-.019.064.134.134 0 01-.041.052z" fill="#fff"/><path opacity=".3" d="M348.809 372.268l-1.071-.15 1.838-13.188 1.071.15a.536.536 0 01.212.073.581.581 0 01.277.574l-1.675 12.005a.61.61 0 01-.216.403.62.62 0 01-.436.133z" fill="#000"/><path d="M284.826 365.112l9.186-1.436-1.676-8.918-9.34 2.178 1.83 8.176z" fill="#FDD8BD"/><path opacity=".15" d="M291.428 364.062l-6.603 1.05-.826-3.7 4.455-.776a.978.978 0 00.543-.283.995.995 0 00.271-.548l1.183-4.613 1.011 8.866-.034.004z" fill="#000"/><path d="M275.018 358.432l7.978-1.5a4.474 4.474 0 013.335.703 4.47 4.47 0 011.866 2.855l.039.189a4.21 4.21 0 01-2.571 4.716 6.826 6.826 0 00-2.815 2.083l-1.234 1.531a7.044 7.044 0 01-4.16 2.499l-2.438-13.076z" fill="#2B2D31"/><path d="M284.544 364.486a.107.107 0 010-.103 4.49 4.49 0 00-.857-4.476.12.12 0 01-.035-.051.132.132 0 01-.013-.06c0-.021.004-.043.013-.06a.12.12 0 01.035-.051.13.13 0 01.051-.039.15.15 0 01.124 0 .14.14 0 01.052.039c.56.655.938 1.444 1.097 2.289a4.929 4.929 0 01-.193 2.534c0 .098-.137.124-.206.103a.228.228 0 01-.068-.125z" fill="#fff"/><path d="M283.515 365.198a.121.121 0 01-.013-.052c0-.017.005-.034.013-.047.27-.754.333-1.569.183-2.358a4.475 4.475 0 00-1.04-2.122.138.138 0 01-.036-.051.15.15 0 01-.013-.06.135.135 0 01.01-.061.155.155 0 01.033-.055.203.203 0 01.05-.035.158.158 0 01.061-.012c.021 0 .041.004.061.008.02.009.037.022.053.034a4.896 4.896 0 01.904 4.819c0 .099-.137.125-.206.103-.068-.021-.051-.051-.06-.111zm-1.08.819a.13.13 0 010-.099c.27-.755.332-1.569.182-2.358a4.482 4.482 0 00-1.039-2.122.123.123 0 01-.035-.052.143.143 0 010-.12.126.126 0 01.035-.051.145.145 0 01.05-.039.159.159 0 01.061-.013c.021 0 .042.005.061.013a.158.158 0 01.051.039 4.893 4.893 0 01.908 4.819c0 .098-.141.124-.21.103a.177.177 0 01-.064-.12z" fill="#fff"/><path d="M318.14 249.841l-4.498.24-.596.039-3.942.24h-.042l-5.056.279a1.466 1.466 0 00-1.031.505 1.486 1.486 0 00-.362 1.089l.078 1.154a4.055 4.055 0 002.679 3.677 4.066 4.066 0 003.13-.166 4.065 4.065 0 001.274-.968c.356-.404.628-.874.799-1.385.173-.51.241-1.05.202-1.587l-.081-1.153a1.438 1.438 0 00-.356-.879l1.551-.077a1.46 1.46 0 00-.24.913l.082 1.157a4.05 4.05 0 007.022 2.446 4.049 4.049 0 001.062-2.874l-.081-1.158a1.49 1.49 0 00-.474-1.091 1.487 1.487 0 00-1.12-.401zm-8.042 1.955l.082 1.153a3.438 3.438 0 01-3.229 3.63 3.437 3.437 0 01-3.626-3.231l-.082-1.153a.924.924 0 01.836-.96l5.06-.279h.038a.853.853 0 01.921.84zm9.118.635a3.44 3.44 0 01-3.229 3.629 3.44 3.44 0 01-2.482-.864 3.438 3.438 0 01-1.144-2.367l-.082-1.153a.924.924 0 01.836-.956l.599-.043 4.499-.236a.915.915 0 01.955.858l.048 1.132z" fill="#21252B"/><path d="M309.263 259.723l5.056-.356a.195.195 0 01.199.148.201.201 0 01.002.088 2.866 2.866 0 01-2.538 2.097 2.871 2.871 0 01-2.838-1.668v-.022a.17.17 0 01-.027-.179.172.172 0 01.146-.108z" fill="#fff"/><path opacity=".3" d="M300.262 254.008a.339.339 0 01-.317-.278l-.081-.639a2.144 2.144 0 00-.557-1.394.639.639 0 00-.475-.158.313.313 0 01-.36-.24.316.316 0 01.24-.36c.336-.036.675.049.955.24a2.467 2.467 0 01.797 1.792l.077.639a.39.39 0 01-.279.398zm21.903-1.616a.315.315 0 00.202-.103.313.313 0 00.076-.214v-.639a1.835 1.835 0 01.36-1.436.613.613 0 01.476-.236.348.348 0 00.209-.083.345.345 0 00.112-.196.341.341 0 00-.278-.321 1.228 1.228 0 00-.857.398c-.399.399-.557 1.038-.519 1.912v.639c-.098.18.022.279.219.279z" fill="#000"/><path opacity=".15" d="M333.385 332.126l-.402.278 26.186-16.167a6.149 6.149 0 001.714-8.398l-1.316-2.144s3.381 5.788-4.76 10.907L331.886 331.2l1.499.926zM269 315.985c-5.51-2.662-4.058-8.935-4.058-8.935l-.475.789a6.14 6.14 0 001.714 8.399l26.627 15.888-.604-.313 1.825-1.286L269 315.985z" fill="#000"/><path d="M267.067 329.918l21.714 2.456h47.998l20.613-2.456-3.591 21.685h-77.985l-7.995-21.068" fill="#6766B2"/><path d="M312.316 347.08l35.209-14.093a66.07 66.07 0 0111.14-3.348 9.375 9.375 0 016.088.798 11.097 11.097 0 015.57 6.405l.184.553a9.376 9.376 0 01-3.041 10.323 9.322 9.322 0 01-3.66 1.792l-71.726 17.076-2.965-11.451 23.201-8.055z" fill="#817FDE"/><path opacity=".2" d="M370.025 344.546a9.376 9.376 0 00.485-7.151l-.185-.553a11.078 11.078 0 00-2.639-4.287s3.522 12.06-9.186 14.817l-17.737 4.351c-2.613.639-5.339.66-7.961.06l-20.111-4.591 6.834 12.861 44.279-10.542a9.388 9.388 0 003.663-1.788 9.415 9.415 0 002.558-3.177z" fill="#000"/><path d="M312.691 347.196l-35.222-14.088a65.494 65.494 0 00-11.14-3.348 9.366 9.366 0 00-6.088.793 11.11 11.11 0 00-5.57 6.405l-.184.553a9.381 9.381 0 00.488 7.151 9.454 9.454 0 002.569 3.173 9.426 9.426 0 003.67 1.779l72.629 17.076 2.061-11.451-23.213-8.043z" fill="#817FDE"/><path opacity=".2" d="M289.521 357.022l17.776 5.938 4.932-1.183-22.836-5.423.128.668zm44.825 7.931l-62.459-16.604c-1.499-.429-2.999-.755-4.528-1.089-12.567-2.77-12.254-11.383-12.254-11.383-.158.352-.304.712-.428 1.08l-.185.554a9.382 9.382 0 00.489 7.151 9.379 9.379 0 002.566 3.168 9.357 9.357 0 003.668 1.783l72.629 17.076.502-1.736z" fill="#000"/><path d="M336.269 343.612h-46.726l-2.262-30.821a1.218 1.218 0 011.213-1.286h48.821a1.234 1.234 0 01.883.382 1.22 1.22 0 01.329.904l-2.258 30.821z" fill="#21252B"/><path opacity=".3" d="M336.269 343.612h-46.726l-2.262-30.821a1.218 1.218 0 011.213-1.286h48.821a1.234 1.234 0 01.883.382 1.22 1.22 0 01.329.904l-2.258 30.821z" fill="#000"/><path opacity=".4" d="M289.543 342.132h46.739a.16.16 0 01.113.047c.031.03.048.069.05.112v2.045a.163.163 0 01-.163.163h-46.598a.163.163 0 01-.162-.15l-.15-2.045a.152.152 0 01.046-.125.154.154 0 01.057-.038c.022-.009.045-.009.068-.009zm26.105-13.697a1.889 1.889 0 01-1.878-2.147c.049-.358.199-.695.434-.97a3.373 3.373 0 00-3.905.972 3.379 3.379 0 003.587 5.38 3.381 3.381 0 002.396-3.343 1.853 1.853 0 01-.634.108z" fill="#000"/><path d="M353.186 294.036l-12.931 8.318 1.437 2.236 12.931-8.318-1.437-2.236zm-82.981 3l12.693 8.716 1.505-2.195-12.692-8.716-1.506 2.195z" fill="#fff"/><path opacity=".3" d="M336.779 296.786l-2.52-2.988-.415 17.685h3.055l-.12-14.697z" fill="#000"/></g><path d="M85.334 388.913c.005 2.21-1.782 4.014-3.99 3.916A84.936 84.936 0 01.313 312.178c-.11-2.206 1.687-4.003 3.897-4.008l76.934-.181a4 4 0 014.01 3.99l.181 76.934z" fill="#7FDEDB"/><circle cx="41.921" cy="260.75" r="41.448" transform="rotate(-.135 41.921 260.75)" fill="#7977E1"/></g><defs><linearGradient id="paint0_linear" x1="448.999" y1="588.055" x2="-12.357" y2="187.809" gradientUnits="userSpaceOnUse"><stop offset=".402" stop-color="#7FDEDB"/><stop offset="1" stop-color="#5B6CF2"/></linearGradient><clipPath id="clip0"><path fill="#fff" transform="translate(93 93)" d="M0 0h365.094v274H0z"/></clipPath></defs></svg>