<svg width="227" height="135" viewBox="0 0 227 135" fill="none" xmlns="http://www.w3.org/2000/svg"><path d="M227 70.114c0 36.174-51.5 80.999-113.5 58.999-62-22-113.5-22.825-113.5-59 0-36.174 42.5-85.5 113.5-65.5S227 33.94 227 70.114z" fill="#F3F6FB"/><path d="M200.826 35.405l-54.706-18.66a5.602 5.602 0 00-7.108 3.492l-8.651 25.365a5.6 5.6 0 003.492 7.108l54.705 18.66a5.602 5.602 0 007.108-3.492l8.652-25.365a5.602 5.602 0 00-3.492-7.108z" fill="#3658B0"/><path d="M195.147 33.468l-54.705-18.66a5.601 5.601 0 00-7.108 3.492l-8.652 25.365a5.602 5.602 0 003.492 7.108l54.705 18.66a5.601 5.601 0 007.108-3.492l8.652-25.365a5.602 5.602 0 00-3.492-7.108z" fill="#4D7EFC"/><path opacity=".3" d="M141.08 40.998a5.581 5.581 0 003.603-10.562 5.58 5.58 0 00-3.603 10.562zm18.778 6.405a5.581 5.581 0 10-3.48-7.083 5.581 5.581 0 003.48 7.083zm18.778 6.405a5.58 5.58 0 103.601-10.563 5.58 5.58 0 00-3.601 10.563z" fill="#000"/><path d="M132.225 52.155l-3.761 11.396 19.04-9.354-15.279-2.042z" fill="#4D7EFC"/><path opacity=".2" d="M130.238 33.57l4.52-13.25c.187-.55.477-1.057.867-1.49a4.384 4.384 0 013.041-1.481 4.366 4.366 0 011.705.237l43.023 15.024-42.191-11.454a4.436 4.436 0 00-2.812.191 4.417 4.417 0 00-2.113 1.858l-6.04 10.366z" fill="#fff"/><path d="M70.628 117c22.805-2.281 39.443-22.616 37.163-45.42-2.281-22.805-22.616-39.443-45.42-37.163-22.804 2.28-39.443 22.616-37.162 45.42C27.49 102.64 47.824 119.28 70.63 117z" fill="#4D7EFC"/><path opacity=".2" d="M32.959 89.185a38.528 38.528 0 0115.853-41.967 38.536 38.536 0 0144.836 1.483 38.543 38.543 0 00-28.507-11.387 38.533 38.533 0 00-37.206 42.274 38.536 38.536 0 0014.918 26.83 38.46 38.46 0 01-9.894-17.233z" fill="#fff"/><path d="M87.052 60.075l-6.387 1.71-2.594.69-4.939 1.316a.563.563 0 01-.704-.535 23.955 23.955 0 00-1.046-6.41 38.093 38.093 0 00-1.053-3.662 6.821 6.821 0 00-2.105-3.097 4.651 4.651 0 00-3.925-.952c-3.182.852-2.85 4.103-2.478 6.705.441 3.034 1.115 6.116.534 9.174a8.4 8.4 0 01-3.096 5.466 23.345 23.345 0 01-3.972 2.57.56.56 0 00-.294.643l5.481 20.585a.569.569 0 00.689.395l5.698-1.548a.58.58 0 01.496.108 6.332 6.332 0 005.597 1.161l8.857-2.322 6.433-1.719 2.555-.681a4.91 4.91 0 003.469-5.992 4.3 4.3 0 00-.945-1.758.537.537 0 01-.039-.689 5.584 5.584 0 00.566-4.273l-.147-.542a4.301 4.301 0 00-.945-1.758.537.537 0 01-.039-.689 4.333 4.333 0 00.72-3.7l-.147-.542a4.3 4.3 0 00-.944-1.758.538.538 0 01-.04-.689 4.332 4.332 0 00.72-3.7 4.927 4.927 0 00-5.976-3.508z" fill="#F4F4F4"/><path d="M52.07 74.115l-6.908 1.852a2.13 2.13 0 00-1.507 2.609l5.914 22.064a2.13 2.13 0 002.61 1.505l6.908-1.851a2.131 2.131 0 001.507-2.61L54.68 75.621a2.13 2.13 0 00-2.61-1.506z" fill="#B377E1"/></svg>